<?xml version="1.0" standalone="no"?>
<!DOCTYPE svg PUBLIC "-//W3C//DTD SVG 20010904//EN"
 "http://www.w3.org/TR/2001/REC-SVG-20010904/DTD/svg10.dtd">
<svg version="1.0" xmlns="http://www.w3.org/2000/svg"
 width="499.000000pt" height="499.000000pt" viewBox="0 0 499.000000 499.000000"
 preserveAspectRatio="xMidYMid meet">
<metadata>
Created by potrace 1.14, written by Peter Selinger 2001-2017
</metadata>
<g transform="translate(0.000000,499.000000) scale(0.100000,-0.100000)"
fill="#000000" stroke="none">
<path d="M3335 4165 c-95 -23 -789 -330 -806 -356 -3 -6 -3 -28 1 -49 6 -32 3
-46 -17 -74 -20 -31 -96 -86 -128 -93 -5 -1 -44 -14 -85 -28 -107 -38 -158
-40 -206 -7 l-38 25 -146 -73 c-80 -41 -174 -91 -210 -110 -167 -93 -200 -111
-206 -110 -4 1 -10 -2 -13 -7 -5 -7 -144 -89 -276 -163 -22 -12 -58 -34 -80
-49 -22 -15 -47 -30 -55 -34 -8 -4 -27 -15 -42 -25 -15 -9 -55 -35 -90 -56
-139 -87 -383 -250 -390 -260 -4 -6 -8 -7 -8 -3 0 5 -27 -12 -59 -37 -33 -25
-64 -46 -70 -46 -6 0 -11 -4 -11 -8 0 -4 -19 -20 -42 -35 -24 -15 -57 -40 -75
-57 -31 -29 -33 -43 -16 -90 8 -20 11 -30 17 -59 3 -13 22 -81 42 -150 20 -69
37 -133 39 -142 3 -17 28 -102 70 -244 189 -634 278 -889 332 -943 7 -7 13
-17 13 -22 0 -4 11 -15 25 -24 21 -14 35 -15 83 -7 31 6 80 13 107 16 103 12
178 24 184 31 3 2 6 12 7 21 9 62 68 117 125 115 40 -1 85 -30 113 -72 21 -32
28 -36 62 -34 22 1 55 5 74 8 20 4 54 9 75 11 95 8 172 16 205 20 19 3 64 7
100 11 36 3 79 7 95 9 42 6 192 18 237 19 21 1 38 3 38 6 0 3 12 6 28 6 15 1
54 4 87 8 88 9 150 14 240 21 44 3 94 8 110 10 33 4 112 11 225 20 93 7 140
14 151 21 5 3 9 0 9 -6 0 -6 3 -9 8 -7 10 7 90 16 182 22 257 16 258 16 299
74 63 88 161 101 263 34 20 -14 39 -32 42 -40 5 -13 19 -14 79 -9 119 11 294
24 390 29 9 1 17 4 18 7 0 3 2 28 4 55 2 28 7 86 10 130 4 44 8 103 10 130 2
28 4 50 5 50 1 0 4 14 6 30 8 73 14 111 19 135 3 14 8 39 11 55 3 17 9 47 15
67 11 44 2 159 -16 187 -5 9 -19 77 -31 148 -10 60 58 164 123 189 24 9 43 19
44 23 4 35 12 75 38 186 17 72 38 153 47 181 18 60 13 86 -29 164 -43 79 -149
244 -159 248 -4 2 -8 8 -8 14 0 8 -58 86 -80 108 -3 3 -21 25 -40 50 -77 99
-272 295 -370 370 -25 19 -58 47 -75 62 -16 14 -41 36 -55 47 -14 11 -36 31
-50 44 -14 13 -52 46 -85 73 -33 27 -68 57 -79 67 -11 9 -23 17 -27 17 -4 0
-14 6 -22 14 -12 12 -164 116 -205 140 -22 13 -54 13 -107 1z"/>
</g>
</svg>
